<svg width="516" height="313" xmlns="http://www.w3.org/2000/svg" style="vector-effect: non-scaling-stroke;" stroke="null" preserveAspectRatio="xMidYMid meet" version="1.0">
 <g stroke="null">
  <title stroke="null">Layer 1</title>
  <g transform="translate(0 313) scale(0.1 -0.1)" stroke="null" id="svg_1" fill="#000000">
   <path stroke="null" id="svg_2" d="m2412.54252,3005.72784c-438.29561,-79.4689 -767.52226,-387.65318 -855.38336,-799.53469c-19.18806,-88.1911 -20.19795,-133.74035 -20.19795,-636.72035c0,-297.52382 -5.04949,-591.17111 -10.09898,-652.22648c-30.29693,-357.61006 -248.43484,-666.76348 -580.69118,-826.67041c-64.63345,-31.01225 -202.98944,-72.68497 -292.87034,-89.16023c-59.58396,-10.66046 255.50412,-12.59873 1933.95411,-12.59873c1678.44999,0 1993.53808,1.93827 1933.95411,12.59873c-89.8809,16.47526 -228.23688,58.14798 -292.87034,89.16023c-289.84064,139.55515 -489.80039,388.62232 -566.55261,705.52879c-14.13857,57.17884 -18.17816,171.53653 -24.23755,722.00406c-8.07918,727.81885 -5.04949,701.65226 -81.80171,879.97273c-123.20752,289.77075 -388.81062,508.7948 -713.99768,589.23284c-125.22732,31.98139 -313.06829,39.73445 -429.20653,18.41353z" fill="#eceeff"/>
  </g>
 </g>

</svg>
